<?xml version="1.0" encoding="UTF-8" standalone="no"?>
<!-- Created with Inkscape (http://www.inkscape.org/) -->

<svg
   version="1.1"
   id="svg1"
   width="641"
   height="176"
   viewBox="0 0 641 176"
   sodipodi:docname="logoText.svg"
   inkscape:version="1.3.2 (091e20e, 2023-11-25, custom)"
   xmlns:inkscape="http://www.inkscape.org/namespaces/inkscape"
   xmlns:sodipodi="http://sodipodi.sourceforge.net/DTD/sodipodi-0.dtd"
   xmlns="http://www.w3.org/2000/svg"
   xmlns:svg="http://www.w3.org/2000/svg">
  <defs
     id="defs1" />
  <sodipodi:namedview
     id="namedview1"
     pagecolor="#ffffff"
     bordercolor="#000000"
     borderopacity="0.25"
     inkscape:showpageshadow="2"
     inkscape:pageopacity="0.0"
     inkscape:pagecheckerboard="0"
     inkscape:deskcolor="#d1d1d1"
     inkscape:zoom="4.6816867"
     inkscape:cx="527.48083"
     inkscape:cy="80.206136"
     inkscape:window-width="1920"
     inkscape:window-height="1001"
     inkscape:window-x="-9"
     inkscape:window-y="-9"
     inkscape:window-maximized="1"
     inkscape:current-layer="g1" />
  <g
     inkscape:groupmode="layer"
     inkscape:label="Image"
     id="g1">
    <path
       style="fill:#000000"
       d="m 71.640123,146.54051 c -4.373515,-2.32911 -4.900504,-3.77682 -4.986426,-13.69846 l -0.07028,-8.11601 -5.81401,-2.11989 c -3.76702,-1.37353 -7.922416,-4.0279 -11.802463,-7.53914 -6.372505,-5.76678 -14.383527,-16.742323 -14.383527,-19.706223 0,-0.98158 -0.45,-2.06281 -1,-2.40273 -0.55,-0.33992 -1,-3.90601 -1,-7.92466 0,-6.41702 0.448547,-8.2057 3.684049,-14.69098 3.833261,-7.68344 11.759876,-16.5112 17.483289,-19.47089 1.698966,-0.87857 5.281347,-2.24845 7.960846,-3.04418 l 4.871816,-1.44677 v -9.01763 c 0,-8.88258 0.04826,-9.06171 3.222861,-11.96126 4.344448,-3.96804 9.103298,-3.98666 13.813916,-0.0541 3.374992,2.81757 3.469835,3.09911 3.806617,11.29973 l 0.345388,8.41015 7.155609,2.24505 c 3.935588,1.23477 9.630612,3.4624 12.655612,4.95028 7.80718,3.84004 7.93755,6.36487 0.71664,13.87904 l -5.4195,5.6396 -7.398572,-2.81983 c -4.416772,-1.68337 -10.070141,-2.98675 -14.027388,-3.23401 -5.77412,-0.36078 -7.343982,-0.0496 -12.175453,2.41312 -3.05065,1.55502 -6.930182,4.57669 -8.621183,6.71482 -2.741228,3.46605 -3.074547,4.61517 -3.074547,10.59952 0,5.69421 0.425192,7.34511 2.803975,10.88703 7.38312,10.993203 22.461366,14.179883 36.566476,7.728063 4.087072,-1.86946 6.214972,-2.35247 7.428652,-1.68619 3.52069,1.93273 11.46748,10.94699 10.91649,12.38286 -1.15923,3.02088 -9.43668,7.36369 -18.478292,9.69472 l -9.237301,2.38148 v 7.30107 c 0,7.9166 -1.108122,10.22256 -6.20034,12.9027 -3.507701,1.84617 -5.538588,1.74272 -9.742949,-0.49631 z m 462.693297,-5.24473 c -3.2946,-1.20329 -3.29884,-1.25035 -0.68046,-7.55089 l 2.06955,-4.97988 4.88456,0.46934 c 4.41464,0.4242 5.17759,0.17632 7.93045,-2.57655 1.68894,-1.68894 3.0459,-4.10669 3.0459,-5.42701 0,-2.17976 -5.32505,-15.27005 -17.39502,-42.761293 -2.53274,-5.76871 -4.60498,-10.60621 -4.60498,-10.75 0,-0.14379 3.77053,-0.26144 8.37897,-0.26144 h 8.37896 l 5.18088,14.02446 c 2.84948,7.71346 6.02827,15.91718 7.06397,18.23049 1.62439,3.628193 1.986,3.933943 2.6321,2.225543 0.41195,-1.08927 3.52387,-9.180493 6.91539,-17.980493 l 6.16639,-16 7.64167,-0.29206 c 4.5876,-0.17534 7.64167,0.10477 7.64167,0.70086 0,1.42296 -17.19536,41.542973 -23.41315,54.627283 -5.64927,11.88795 -9.8937,16.61654 -16.58685,18.4789 -4.39304,1.22235 -11.64879,1.13802 -15.25,-0.17726 z m -405.75,-20.9144 c -5.79864,-2.61937 -11.53835,-8.18346 -14.5864,-14.14007 -1.9522,-3.81508 -2.4136,-6.23315 -2.4136,-12.649123 0,-7.51013 0.19961,-8.22863 3.75,-13.49825 4.50137,-6.68111 9.02641,-10.19503 15.66878,-12.1676 6.71207,-1.99327 10.47178,-1.84917 17.29371,0.66282 10.79309,3.97427 18.28751,14.57562 18.28751,25.8689 0,15.428533 -13.0561,28.054363 -28.9315,27.978043 -2.51268,-0.0121 -6.5935,-0.9367 -9.0685,-2.05472 z m 15.96136,-12.40334 c 4.15842,-2.1504 6.84566,-6.05028 7.59022,-11.015373 0.8692,-5.79625 -0.87977,-10.70757 -5.14743,-14.45462 -6.37832,-5.60024 -15.93211,-3.50579 -19.46077,4.26633 -2.44416,5.38342 -2.43641,10.03397 0.0252,15.117963 3.348,6.91469 10.46251,9.46265 16.9928,6.0857 z m 27.03864,-12.394983 v -26.875 l 3.125,-0.625 c 1.71875,-0.34375 4.86875,-0.625 7,-0.625 3.78312,0 3.875,0.0854 3.875,3.60359 v 3.6036 l 3.48687,-3.06152 c 9.81076,-8.61396 24.76414,-5.43259 30.61996,6.51447 2.20444,4.49751 2.39805,6.2369 2.73705,24.589863 l 0.3648,19.75 h -6.9735 -6.9735 l -0.61983,-3.75 c -0.34091,-2.0625 -0.62479,-10.19712 -0.63084,-18.07692 l -0.011,-14.326923 -2.92308,-2.92308 c -5.29733,-5.29733 -13.75182,-3.32 -17.5969,4.11556 -1.12633,2.17809 -1.48002,6.69749 -1.48002,18.911703 v 16.04966 h -7 -7 z m 74.45042,25.468403 c -3.9923,-1.73893 -8.11487,-6.72404 -9.40641,-11.37445 -0.56807,-2.04542 -1.03537,-9.43057 -1.03843,-16.411453 l -0.006,-12.6925 -4.25,-0.3075 -4.25,-0.3075 -0.29772,-6.25 -0.29771,-6.25 h 4.54771 4.54772 v -5.98743 -5.98743 l 6.96256,-3.50628 6.96255,-3.50629 0.28745,9.24372 0.28744,9.24371 7.25,0.29381 c 8.05892,0.32659 7.97058,0.21354 6.60815,8.45619 l -0.61983,3.75 h -6.86916 -6.86916 l 0.0137,12.25 c 0.008,6.7375 0.28629,13.267423 0.6195,14.510943 0.73801,2.7542 4.69098,3.93265 8.44215,2.51674 2.61241,-0.98607 2.82786,-0.81268 5.32365,4.28438 1.43058,2.92162 2.60105,5.51651 2.60105,5.76641 0,0.2499 -1.80911,1.17823 -4.02024,2.06295 -4.83132,1.93311 -12.3442,2.02492 -16.52934,0.20198 z m 42.04958,0.53063 c -4.81577,-1.26726 -8.74196,-3.6875 -12.63982,-7.79161 -5.25561,-5.53372 -7.12222,-9.90068 -7.63947,-17.872643 -0.58868,-9.07281 2.00214,-15.52378 8.78135,-21.86494 12.08342,-11.30263 29.52655,-9.31301 37.68947,4.29898 3.19412,5.32633 4.82559,12.65934 4.14616,18.6358 l -0.33769,2.97038 -18,0.183423 c -9.9,0.10088 -17.95353,0.32588 -17.89673,0.5 0.0568,0.17412 0.41752,1.30674 0.80162,2.51693 1.0398,3.27611 7.14971,6.63298 12.0728,6.63298 2.35008,0 6.31184,-1.02121 8.98845,-2.31694 3.95807,-1.91607 4.92565,-2.07467 5.59236,-0.91666 0.44341,0.77015 1.96164,2.9502 3.37385,4.84455 1.41221,1.89435 2.56765,3.7454 2.56765,4.11344 0,0.36803 -2.77214,1.91322 -6.16032,3.43374 -6.51317,2.92293 -15.85618,4.07553 -21.33968,2.63257 z m 16.70143,-33.624033 c -0.16421,-1.1 -1.8451,-3.4625 -3.73531,-5.25 -4.90554,-4.63898 -10.33116,-4.58496 -15.06612,0.15 -6.24567,6.24568 -4.362,7.41496 11.6,7.20068 6.9055,-0.0927 7.47633,-0.25921 7.20143,-2.10068 z m 20.0325,7.25 0.26607,-27.25 6.75,-0.29569 6.75,-0.29569 v 4.09383 4.09383 l 3.52752,-3.42588 c 9.23661,-8.97048 24.39963,-6.22086 30.69532,5.5662 2.11602,3.96171 2.30007,5.69634 2.60087,24.513403 l 0.32371,20.25 h -7.07371 -7.07371 v -16.59887 c 0,-18.183313 -0.90961,-22.127653 -5.59524,-24.262573 -3.92001,-1.78607 -8.85494,-1.35889 -11.89108,1.02934 -4.70863,3.70381 -5.51368,7.25185 -5.51368,24.299983 v 15.53212 h -7.01607 -7.01607 z m 73.26607,25.838363 c -3.86434,-1.71752 -7.00743,-5.16523 -8.95227,-9.81989 -1.14745,-2.74623 -1.54773,-7.33326 -1.54773,-17.736353 v -14.03212 h -4.5 -4.5 v -6 -6 h 4.4501 4.45009 l 0.29991,-5.75 0.2999,-5.75 6,-3.22188 c 3.3,-1.77204 6.45,-3.23504 7,-3.25112 0.59271,-0.0173 1,3.53499 1,8.72189 v 8.75111 l 7.37333,0.2963 7.37333,0.2963 -0.61233,3.7037 c -0.33677,2.03704 -0.61727,4.7162 -0.62332,5.9537 -0.0104,2.118 -0.42168,2.25 -7.01101,2.25 h -7 v 12.7775 c 0,9.946163 0.34495,13.269973 1.5567,15.000003 1.64452,2.34787 5.2982,2.9057 8.3465,1.27431 1.50878,-0.80748 2.10993,-0.13219 4.05069,4.55023 1.25343,3.02414 2.11408,5.6436 1.91254,5.82102 -3.93242,3.46191 -13.93329,4.58008 -19.36643,2.1653 z m 26.20762,0.78593 c -0.38919,-0.38919 -0.70762,-17.09977 -0.70762,-37.134633 v -36.427 l 18.75,0.40292 c 16.38882,0.35219 19.33299,0.66783 23.37946,2.50647 5.19183,2.35907 11.02763,7.74727 13.43692,12.40632 4.27804,8.2728 2.30579,21.60745 -4.1842,28.28998 -5.85554,6.02926 -11.05664,7.79412 -24.59959,8.347263 l -11.7174,0.47857 -0.2826,10.62791 -0.28259,10.62791 -6.54238,0.29096 c -3.5983,0.16002 -6.8608,-0.0275 -7.25,-0.41667 z m 33.6566,-36.753113 c 7.9374,-3.31646 9.93674,-11.14963 4.38578,-17.18297 -2.78788,-3.03014 -4.17424,-3.66506 -9.75,-4.46521 -3.575,-0.51303 -8.1875,-0.94183 -10.25,-0.95289 l -3.75,-0.0201 v 12 12 h 8.03212 c 4.56369,0 9.45711,-0.5954 11.3321,-1.37882 z m 33.05718,35.482493 c -7.16086,-3.2523 -11.38132,-11.17332 -9.96784,-18.7078 0.91264,-4.864823 6.74911,-10.803573 12.06899,-12.280483 5.12999,-1.42421 14.29347,-1.42409 18.37927,2.3e-4 1.76015,0.61359 3.45632,0.85958 3.76927,0.54663 1.33729,-1.3373 -0.8936,-7.76194 -3.22591,-9.29012 -3.75764,-2.46211 -12.09958,-2.29465 -17.39061,0.3491 -2.44499,1.22168 -4.54282,2.12168 -4.66185,2 -0.11902,-0.12167 -1.11695,-2.59454 -2.21762,-5.49526 l -2.00121,-5.27403 3.66305,-1.86023 c 11.03506,-5.60398 26.71995,-4.58613 33.99443,2.20602 5.28614,4.93565 5.62847,6.67489 5.64927,28.702273 l 0.0194,20.5 -6.75,0.29569 c -6.22995,0.27291 -6.75,0.13808 -6.75,-1.75 0,-2.49272 0.19783,-2.49011 -5.1408,-0.0677 -5.58893,2.53604 -14.01074,2.59047 -19.4378,0.12563 z m 22.12405,-11.55822 c 5.20748,-5.20747 1.23852,-11.545453 -7.22997,-11.545453 -6.50589,0 -11.31548,2.977473 -11.31548,7.005063 0,0.46282 1.165,2.22602 2.58889,3.91822 2.30844,2.74342 3.18,3.07672 8.04546,3.07672 4.46005,0 5.90482,-0.44826 7.9111,-2.45455 z"
       id="path1" />
    <path
       style="fill:#00203e;fill-opacity:1;stroke-width:1.20829"
       d="m 72.830095,146.13253 c -4.639106,-2.51755 -5.769775,-5.29728 -5.769775,-14.18489 v -7.76919 l -5.739396,-2.17797 c -7.60093,-2.88438 -21.008838,-16.2118 -25.055968,-24.905555 -5.820167,-12.502461 -2.92963,-24.970709 8.681376,-37.446866 5.542633,-5.955623 15.497982,-11.883511 19.999474,-11.90864 1.825956,-0.01019 2.114514,-1.255979 2.114514,-9.128932 0,-8.068854 0.341005,-9.458132 2.965813,-12.08294 3.668897,-3.668897 8.874035,-3.851122 13.183208,-0.461527 2.58367,2.032315 3.206383,3.569437 3.304127,8.155985 0.211021,9.902056 0.984736,11.101265 9.045521,14.020004 10.282921,3.723356 16.751441,7.262612 17.168921,9.39399 0.19612,1.001209 -1.97881,4.376255 -4.83317,7.500102 l -5.18974,5.679723 -6.645622,-2.305846 c -15.830223,-5.492651 -24.582513,-4.483042 -33.266182,3.837374 -5.275249,5.054577 -5.399228,5.34826 -5.399228,12.789711 0,9.343243 2.780979,14.450955 10.251863,18.829187 7.751131,4.54246 15.334219,5.0259 26.560244,1.69326 10.491325,-3.11453 11.103295,-2.96249 16.898965,4.19825 l 3.6757,4.54145 -3.38842,2.9146 c -1.86363,1.60303 -8.25086,4.37015 -14.193857,6.14915 l -10.805438,3.23455 -0.0185,7.33645 c -0.02026,8.03397 -0.37635,8.923 -4.781453,11.93758 -3.590164,2.4569 -4.501442,2.47364 -8.762975,0.16099 z"
       id="path2" />
    <path
       style="fill:#00203e;fill-opacity:1;stroke-width:0.213598"
       d="m 134.01325,121.88257 c -3.05105,-0.66838 -4.26278,-1.08317 -6.46846,-2.21421 -2.83372,-1.4531 -5.14841,-3.19301 -7.71618,-5.80011 -3.57801,-3.63283 -6.30172,-8.02407 -7.36564,-11.87509 -0.65147,-2.358123 -0.96934,-7.846307 -0.69384,-11.979614 0.27904,-4.186444 0.66252,-5.249801 3.34431,-9.273415 4.89577,-7.345343 9.12684,-10.652028 16.42485,-12.836419 3.9595,-1.185132 7.96885,-1.478233 11.20773,-0.819334 9.20727,1.873072 16.7182,7.415106 20.72642,15.293231 3.07097,6.035986 3.77649,12.54175 2.05691,18.967251 -2.67443,9.99348 -10.88088,17.8155 -21.21441,20.22062 -3.18763,0.74191 -7.72494,0.88158 -10.30169,0.31709 z m 7.81712,-12.74315 c 1.73754,-0.45257 3.67875,-1.44339 5.16214,-2.63484 6.35544,-5.10463 7.30368,-15.968364 1.93331,-22.1493 -3.10617,-3.574982 -6.02209,-4.995878 -10.26291,-5.001002 -3.34446,-0.004 -6.26132,1.190328 -8.58721,3.516215 -3.71193,3.711929 -5.36599,10.522405 -3.83701,15.7986 1.02099,3.523207 2.73466,6.324427 5.00957,8.188767 1.22766,1.0061 3.28184,2.0558 4.65855,2.38054 1.32039,0.31146 4.5553,0.25741 5.92356,-0.099 z"
       id="path3" />
    <path
       style="fill:#00203e;fill-opacity:1;stroke-width:0.213598"
       d="m 171.67875,95.540866 0.0542,-26.744123 1.81558,-0.366795 c 2.86893,-0.579596 6.09965,-0.874454 8.69704,-0.793751 3.24027,0.100678 3.1372,-0.02457 3.23109,3.926513 0.0404,1.69943 0.12128,3.089872 0.17976,3.089872 0.0585,0 1.08818,-0.84766 2.28822,-1.883689 2.60001,-2.244652 3.57746,-2.933684 5.61356,-3.957158 3.09537,-1.555926 6.9081,-2.238846 10.30208,-1.845262 4.324,0.501432 8.36399,2.421872 11.45102,5.443327 3.11501,3.04884 5.30645,7.022542 6.06652,11.000309 0.53677,2.809181 0.62362,5.144398 1.20951,32.523321 l 0.13605,6.35754 -6.91185,-0.0564 -6.91185,-0.0564 -0.35967,-2.24278 c -0.53501,-3.33621 -0.81273,-11.21027 -0.81433,-23.08894 l -0.001,-10.593439 -2.18938,-2.129664 c -2.48936,-2.42146 -4.07917,-3.341651 -6.3918,-3.699605 -4.29833,-0.665307 -9.04044,1.747546 -11.53648,5.869923 -1.7851,2.948229 -1.90951,4.264496 -2.03404,21.520025 l -0.10444,14.47128 h -6.92181 -6.92181 z"
       id="path4" />
    <path
       style="fill:#00203e;fill-opacity:1;stroke-width:0.213598"
       d="m 251.08472,122.15467 c -1.96303,-0.24108 -4.09765,-0.83051 -5.55355,-1.53348 -1.28518,-0.62054 -2.0244,-1.19781 -3.73797,-2.91903 -3.31146,-3.32624 -4.95304,-6.46013 -5.43148,-10.36905 -0.43833,-3.5812 -0.64992,-9.436192 -0.65297,-18.068517 l -0.003,-8.776994 -3.25737,-0.248911 c -1.79156,-0.136901 -3.59379,-0.249762 -4.00497,-0.2508 -0.41118,-0.001 -0.86116,-0.07411 -0.99996,-0.162382 -0.17058,-0.108482 -0.32632,-1.751309 -0.48059,-5.069686 -0.12553,-2.700059 -0.26935,-5.413824 -0.3196,-6.030589 l -0.0914,-1.121391 h 4.57693 4.57693 v -6.035727 -6.035728 l 6.75238,-3.374161 c 3.7138,-1.855789 6.79515,-3.331388 6.84742,-3.279111 0.0523,0.05228 0.22601,4.091225 0.38608,8.975437 0.16006,4.884213 0.34384,8.965849 0.40839,9.070304 0.0646,0.104454 2.25896,0.25868 4.87645,0.342724 7.80884,0.250732 8.9124,0.495427 9.38761,2.081538 0.22661,0.75637 0.19643,1.367233 -0.20312,4.110522 -0.2581,1.772169 -0.5767,3.822872 -0.70799,4.557116 l -0.2387,1.334989 h -6.89485 -6.89486 l 0.0918,10.092516 c 0.10088,11.088431 0.33669,16.237921 0.79237,17.303101 0.64301,1.50306 2.22597,2.44019 4.47696,2.65039 1.27269,0.11885 1.79291,0.029 4.80218,-0.82914 1.23288,-0.35158 1.78408,-0.0225 2.80561,1.67485 0.73765,1.22569 4.0704,8.19081 4.0704,8.50675 0,0.18139 -3.62292,1.89142 -4.92022,2.32236 -2.57447,0.85519 -7.85659,1.40169 -10.45885,1.0821 z"
       id="path5" />
    <path
       style="fill:#00203e;fill-opacity:1;stroke-width:0.213598"
       d="m 289.60377,121.75511 c -4.87724,-0.88496 -9.33966,-3.36784 -13.42351,-7.46883 -5.63458,-5.65822 -7.59996,-9.98142 -8.21373,-18.06761 -0.49659,-6.542355 0.74204,-11.743477 3.94198,-16.552685 1.52022,-2.284753 4.8013,-5.72613 7.13272,-7.481187 5.2083,-3.920733 11.87498,-5.92195 17.46404,-5.242387 5.59282,0.680022 10.37059,3.025232 14.11402,6.927992 2.89901,3.0224 4.84494,6.35053 6.2164,10.631968 1.20624,3.765622 1.42567,5.257766 1.42567,9.694449 0,2.232102 -0.0743,4.407448 -0.16513,4.834102 l -0.16514,0.775737 -10.40798,0.131158 c -12.28598,0.154823 -25.21999,0.455893 -25.35428,0.590183 -0.13844,0.13845 0.65353,2.59029 1.1528,3.56895 0.9683,1.89802 4.83236,4.41972 8.13316,5.30773 3.3247,0.89445 7.85369,0.27594 12.21579,-1.66827 2.84891,-1.26977 4.66571,-1.88234 5.09973,-1.7195 0.35087,0.13165 2.68307,3.30397 5.49376,7.47277 0.94796,1.40601 1.15291,1.85271 0.98003,2.13598 -0.35653,0.58416 -6.5096,3.58553 -9.00342,4.39173 -5.63368,1.82125 -12.32481,2.52013 -16.63691,1.73772 z m 11.17509,-31.698894 c 3.51387,-0.187962 4.13262,-0.426812 4.13262,-1.595271 0,-1.48981 -2.1528,-4.550571 -4.59343,-6.530769 -5.38717,-4.370852 -10.70865,-3.548622 -15.91506,2.45906 -2.66769,3.078246 -2.42316,4.531612 0.88167,5.240371 2.41839,0.518651 9.91491,0.725057 15.4942,0.426609 z"
       id="path6" />
    <path
       style="fill:#00203e;fill-opacity:1;stroke-width:0.213598"
       d="m 324.7211,117.31894 c 0.0285,-2.73145 0.15033,-14.90829 0.27076,-27.059645 0.12043,-12.151356 0.24191,-22.116319 0.26995,-22.144362 0.028,-0.02804 2.59754,-0.156132 5.70999,-0.284642 3.11246,-0.128511 6.06752,-0.268288 6.56681,-0.310615 l 0.90779,-0.07696 v 4.162422 4.162422 l 2.13827,-1.999278 c 3.08885,-2.888059 4.15302,-3.705806 6.20663,-4.769392 2.92903,-1.516979 4.65351,-1.915502 8.31576,-1.921748 3.31467,-0.0057 4.4465,0.199401 7.22541,1.309027 5.48779,2.191288 10.40777,7.610497 11.7798,12.975085 0.78743,3.07883 0.94832,6.858537 1.40324,32.967196 l 0.13864,7.95654 h -6.96277 -6.96278 l -0.005,-10.84011 c -0.0103,-23.638812 -0.68498,-27.396127 -5.3412,-29.746575 -3.3005,-1.666087 -7.73927,-1.696854 -10.94502,-0.07586 -1.54814,0.782816 -4.20861,3.501281 -4.92807,5.035481 -0.71174,1.517768 -1.33071,4.111506 -1.64615,6.898102 -0.13951,1.2324 -0.28985,7.760782 -0.35539,15.432472 l -0.1136,13.29649 -6.86256,1e-4 -6.86257,1.1e-4 z"
       id="path7" />
    <path
       style="fill:#00203e;fill-opacity:1;stroke-width:0.213598"
       d="m 403.16666,122.15449 c -1.58931,-0.1948 -3.99984,-0.79801 -5.05693,-1.26544 -3.8814,-1.71627 -7.52529,-5.86782 -9.07709,-10.34169 -0.99078,-2.85643 -1.09706,-4.48421 -1.18958,-18.219524 l -0.0874,-12.976093 h -4.57639 -4.57639 V 73.477792 67.60384 h 4.48556 c 3.44357,0 4.48664,-0.06202 4.4902,-0.266998 0.0295,-1.695886 0.64196,-11.103898 0.73243,-11.250278 0.3175,-0.513728 12.00493,-6.424975 12.70314,-6.424975 0.56582,0 0.72247,1.816144 0.81531,9.452656 0.0952,7.834319 0.0964,7.85086 0.5561,7.941868 0.25336,0.05016 3.53633,0.201783 7.29548,0.336943 3.75915,0.13516 6.86683,0.277751 6.90595,0.316868 0.0391,0.03912 -0.13128,1.352891 -0.37866,2.919495 -0.24738,1.566606 -0.52789,3.934624 -0.62334,5.262265 -0.1257,1.748197 -0.26766,2.507994 -0.51478,2.75511 -0.5489,0.548896 -2.05459,0.678706 -8.02922,0.692216 l -5.63075,0.01273 0.10829,11.374106 c 0.13599,14.282214 0.30001,15.526134 2.28223,17.308314 1.22374,1.10025 2.21123,1.43671 4.19659,1.42986 1.06701,-0.004 1.82201,-0.1499 2.752,-0.533 1.8387,-0.75744 2.13829,-0.70951 2.88045,0.46074 1.30601,2.05937 3.83037,8.65661 3.57099,9.33255 -0.3453,0.89982 -3.88327,2.42461 -7.00468,3.01885 -1.83851,0.35001 -5.69076,0.57542 -7.0295,0.41133 z"
       id="path8" />
    <path
       style="fill:#00203e;fill-opacity:1;stroke-width:0.213598"
       d="m 426.28178,122.07422 c -0.973,-0.0875 -1.81976,-0.20969 -1.8817,-0.27163 -0.36007,-0.36007 -0.54445,-11.80191 -0.65781,-40.820405 l -0.12756,-32.652074 5.42205,0.138361 c 2.98212,0.0761 9.41099,0.233076 14.28637,0.348839 16.33536,0.387872 18.77605,0.704664 23.38901,3.035797 5.37857,2.718035 11.28583,8.828246 13.08986,13.539593 2.19772,5.739515 1.94074,13.213042 -0.67494,19.628825 -2.04794,5.023211 -6.20745,9.459185 -11.11916,11.858218 -4.74173,2.316007 -9.69059,3.014627 -25.04497,3.535536 l -4.31177,0.14628 -0.11367,1.30319 c -0.0625,0.71676 -0.16553,3.89841 -0.2289,7.07035 -0.0634,3.17193 -0.17548,7.36847 -0.24911,9.32565 l -0.13389,3.5585 -2.37419,0.12051 c -4.93399,0.25044 -7.55623,0.28848 -9.26962,0.13446 z m 24.41049,-35.684712 c 5.82187,-0.433837 8.75441,-1.387983 11.33497,-3.687998 2.55905,-2.280845 3.66091,-4.888082 3.45573,-8.176987 -0.15774,-2.528381 -1.21896,-4.700103 -3.46165,-7.084104 -2.59413,-2.757571 -4.40614,-3.462324 -11.11362,-4.322462 -2.74598,-0.352134 -9.58386,-0.836474 -12.01673,-0.85117 l -0.4806,-0.0029 v 12.1751 12.175099 l 4.64576,-8.69e-4 c 2.55517,-4.77e-4 5.99143,-0.101146 7.63614,-0.223706 z"
       id="path9" />
    <path
       style="fill:#00203e;fill-opacity:1;stroke-width:0.213598"
       d="m 496.40985,121.94606 c -4.60282,-0.71524 -8.28274,-2.65017 -11.1033,-5.83819 -3.55554,-4.01874 -5.11037,-9.50603 -4.0763,-14.38594 0.92425,-4.36163 5.77692,-9.601084 10.73373,-11.589267 4.42418,-1.774544 13.38895,-2.02197 19.14165,-0.52831 2.93915,0.763138 4.08788,0.822514 4.40619,0.227745 0.97452,-1.820921 -1.21244,-7.567465 -3.46159,-9.095806 -1.98501,-1.348847 -6.03342,-2.015345 -9.87552,-1.625826 -3.24108,0.328587 -5.26155,0.897112 -8.47713,2.385322 -2.60063,1.203603 -3.81004,1.657097 -3.81004,1.428664 0,-0.05763 -0.86507,-2.343484 -1.92238,-5.079687 -1.05731,-2.736203 -1.92238,-5.085674 -1.92238,-5.221046 0,-0.370863 6.00535,-3.186692 8.4135,-3.944975 3.52484,-1.109912 6.55591,-1.547145 10.81034,-1.559399 7.70189,-0.02218 13.35367,1.75199 17.88539,5.614472 2.73327,2.329617 4.16641,4.605502 4.83991,7.685917 0.71517,3.271052 0.80453,5.552446 0.91711,23.413246 l 0.11325,17.9665 -2.10571,0.13113 c -4.67579,0.29119 -8.64217,0.39963 -9.56347,0.26147 -1.30574,-0.19581 -1.62017,-0.55655 -1.62017,-1.85878 0,-0.58672 -0.10402,-1.26113 -0.23115,-1.49868 -0.29574,-0.55259 -0.5957,-0.47838 -4.04074,0.99961 -1.46853,0.63003 -3.39095,1.33961 -4.27204,1.57684 -3.30267,0.88925 -7.24136,1.08474 -10.77915,0.53499 z m 12.0204,-10.55696 c 2.1212,-0.27545 3.25206,-0.82462 4.70698,-2.28582 1.47937,-1.48575 2.22461,-2.94141 2.34286,-4.57623 0.22814,-3.15399 -1.82144,-5.5124 -5.84383,-6.724395 -1.84443,-0.555746 -6.02555,-0.50542 -8.27796,0.09964 -4.18463,1.124104 -6.76446,3.442595 -6.76959,6.083845 -0.002,1.16329 0.55629,2.14134 2.67434,4.68289 1.43473,1.7216 2.59758,2.45336 4.29164,2.70066 1.73387,0.25312 5.00469,0.26235 6.87556,0.0194 z"
       id="path10" />
    <path
       style="fill:#00203e;fill-opacity:1;stroke-width:0.213598"
       d="m 537.41315,141.91511 c -1.57153,-0.22368 -3.88226,-0.94377 -4.77951,-1.48941 -1.18646,-0.72154 -1.06659,-1.27469 1.77888,-8.20839 0.67495,-1.64471 1.29465,-3.06252 1.3771,-3.15069 0.0825,-0.0882 1.92327,-0.001 4.0907,0.19263 3.72562,0.33367 4.01061,0.33254 5.21985,-0.0207 1.13584,-0.33175 1.4966,-0.5925 3.22174,-2.32861 3.05051,-3.06991 3.7582,-4.8978 2.95407,-7.63001 -1.2653,-4.29916 -5.98633,-15.66693 -17.12817,-41.243006 -2.2342,-5.128587 -4.1223,-9.514125 -4.19578,-9.745641 -0.10072,-0.317351 -0.0139,-0.453017 0.35299,-0.551298 0.26762,-0.0717 3.96062,-0.131674 8.20667,-0.133278 7.15507,-0.0027 7.73095,0.02444 7.86858,0.37088 0.0817,0.205588 1.71829,4.603042 3.63694,9.772119 7.14842,19.258737 9.45998,24.930624 10.29024,25.249224 0.19922,0.0764 0.45287,-0.0188 0.60538,-0.22741 0.14438,-0.19744 3.23032,-8.084489 6.85766,-17.526771 l 6.59515,-17.167785 3.63117,-0.152951 c 5.01424,-0.211207 10.90565,-0.07347 11.24175,0.262818 0.32079,0.320974 -0.08,1.416523 -3.77426,10.316806 -7.46218,17.978066 -17.0812,39.779993 -20.82643,47.204023 -5.37116,10.64704 -9.87776,14.82736 -17.37378,16.11584 -2.06493,0.35495 -7.63669,0.40673 -9.85094,0.0916 z"
       id="path11" />
  </g>
</svg>
